<?xml version="1.0" encoding="UTF-8"?><svg id="Layer_1" xmlns="http://www.w3.org/2000/svg" viewBox="0 0 2322.79 2456.14"><defs><style>.cls-1{fill:#ffc900;}</style></defs><g id="iKmpMS"><path class="cls-1" d="M1232.58,0c470.11,21.07,833.46,223.21,1075.38,633.8,24.92,42.3,17.39,59.59-25.57,80.53-327.38,159.6-653.67,321.45-979.97,483.24-16.67,8.26-44.95,10.48-44.18,33.16,.61,17.79,26.73,21.25,42.41,29.11,322.39,161.59,644.98,322.78,967.49,484.15,66.23,33.14,67.77,35.88,28.63,99.85-220.89,361.03-540.6,567.79-963.14,607.14C694.3,2510.51,97.4,2049.89,10.46,1385.36-78.35,706.64,408.4,90.58,1091.46,10.75c46.69-5.46,93.16-9.84,141.12-10.75Z"/></g></svg>